<?xml version="1.0" encoding="UTF-8"?>
<svg id="_图层_1" data-name=" 图层 1" xmlns="http://www.w3.org/2000/svg" version="1.1" viewBox="0 0 361.5 120.5">
  <defs>
    <style>
      .cls-1 {
        fill: #1082ff;
      }

      .cls-1, .cls-2, .cls-3, .cls-4 {
        stroke-width: 0px;
      }

      .cls-2, .cls-3 {
        fill: #fff;
      }

      .cls-2, .cls-4 {
        fill-rule: evenodd;
      }

      .cls-4 {
        fill: #dc4a4e;
      }
    </style>
  </defs>
  <g>
    <path class="cls-3" d="M210.6,96.8v1.8c0,.9-.2,1.8-.5,2.6-.4.8-.8,1.6-1.4,2.2-.6.6-1.3,1.2-2.2,1.5-.8.4-1.7.6-2.7.6s-1.6-.1-2.5-.3c-.8-.2-1.6-.6-2.3-1.2s-1.2-1.3-1.7-2.2c-.4-.9-.6-2-.6-3.4v-16.5c0-1,.2-1.9.5-2.7s.8-1.6,1.4-2.2c.6-.6,1.4-1.1,2.2-1.4.9-.3,1.8-.5,2.8-.5,2,0,3.6.7,4.9,2,.6.6,1.1,1.4,1.4,2.3.4.9.5,1.8.5,2.9v1.7h-4.3v-1.4c0-.8-.2-1.6-.7-2.2-.5-.6-1.1-.9-1.9-.9s-1.8.3-2.1,1c-.4.7-.5,1.5-.5,2.5v15.3c0,.9.2,1.6.6,2.2.4.6,1.1.9,2,.9s.6,0,.9-.2c.3,0,.6-.3.9-.5.2-.2.5-.5.6-.9s.2-.9.2-1.5v-1.5h4.3Z"/>
    <path class="cls-3" d="M221.9,105.4v-2.2h0c-.6.8-1.1,1.4-1.7,1.8-.6.4-1.4.6-2.4.6s-1,0-1.5-.2c-.5-.2-1-.4-1.5-.9-.5-.4-.9-1-1.1-1.7s-.4-1.7-.4-2.9.1-2.3.3-3.2c.2-.9.6-1.7,1.1-2.3.5-.6,1.2-1,2.1-1.3s2-.4,3.3-.4h.5c.2,0,.3,0,.5,0s.3,0,.5,0,.4,0,.6,0v-2.2c0-.7-.1-1.3-.5-1.8-.3-.5-.9-.7-1.7-.7s-1.1.2-1.5.6c-.5.4-.8.9-.9,1.6h-4.2c.1-1.9.8-3.4,1.9-4.6.6-.6,1.2-1,2-1.3.8-.3,1.7-.5,2.6-.5s1.7.1,2.5.4,1.5.7,2.1,1.3c.6.6,1,1.3,1.3,2.1.3.8.5,1.8.5,2.9v14.8h-4.3ZM221.9,96.2c-.5,0-.9-.1-1.2-.1-.9,0-1.7.2-2.4.7-.7.4-1,1.2-1,2.4s.2,1.5.6,2,.9.8,1.6.8,1.3-.2,1.7-.7c.4-.5.6-1.2.6-2v-2.9h0Z"/>
    <path class="cls-3" d="M229.3,105.4v-21.3h4.3v2.1h0c.4-.7,1-1.2,1.6-1.7.6-.4,1.4-.7,2.4-.7s1.7.2,2.3.7,1.1.9,1.5,1.5c.5-.6,1.1-1.1,1.8-1.5.6-.4,1.5-.6,2.7-.6s1.1,0,1.6.3,1.1.5,1.5.9.8,1,1.1,1.6.4,1.5.4,2.4v16.3h-4.3v-14.7c0-.8-.2-1.4-.6-1.8-.4-.4-.9-.7-1.6-.7s-1.4.2-1.7.8c-.3.5-.5,1.2-.5,2.2v14.3h-4.3v-14.7c0-.8-.2-1.4-.6-1.8-.4-.4-.9-.7-1.6-.7s-1.4.2-1.7.8-.5,1.2-.5,2.2v14.3h-4.3Z"/>
    <path class="cls-3" d="M266.6,96.3h-8.5v2.9c0,.7.2,1.2.6,1.6s.9.6,1.5.6,1.4-.2,1.6-.7c.3-.5.4-.9.5-1.4h4.3c0,1.9-.6,3.4-1.7,4.5-.6.6-1.2,1.1-2,1.4-.8.3-1.7.5-2.6.5s-2.5-.3-3.4-.8c-.9-.6-1.7-1.3-2.2-2.2-.3-.6-.5-1.2-.6-1.9s-.2-1.5-.2-2.4v-7c0-.9,0-1.7.2-2.4.1-.7.3-1.4.6-1.9.5-.9,1.2-1.7,2.2-2.2.9-.6,2.1-.8,3.4-.8s1.9.2,2.7.5c.8.3,1.5.8,2,1.4,1.1,1.3,1.7,2.8,1.7,4.8v5.9h0ZM258.1,93h4.2v-2.4c0-.8-.2-1.4-.6-1.8s-.9-.6-1.5-.6-1.1.2-1.5.6-.6,1-.6,1.8v2.4Z"/>
    <path class="cls-3" d="M269.7,105.4v-21.3h4.3v2.3c.9-.8,1.7-1.4,2.6-1.8s1.9-.7,3.1-.7v4.5c-.4-.2-.9-.2-1.3-.2s-.9,0-1.5.2c-.5.2-1,.4-1.4.8-.5.4-.8.8-1.1,1.4-.3.6-.4,1.3-.4,2.2v12.6h-4.3,0Z"/>
    <path class="cls-3" d="M289.2,105.4v-2.2h0c-.6.8-1.1,1.4-1.7,1.8s-1.4.6-2.4.6-1,0-1.5-.2c-.5-.2-1-.4-1.5-.9-.5-.4-.9-1-1.2-1.7-.3-.7-.4-1.7-.4-2.9s.1-2.3.3-3.2c.2-.9.6-1.7,1.1-2.3.5-.6,1.2-1,2.1-1.3s2-.4,3.3-.4h.5c.2,0,.3,0,.5,0,.1,0,.3,0,.5,0s.4,0,.6,0v-2.2c0-.7-.1-1.3-.5-1.8-.3-.5-.9-.7-1.7-.7s-1.1.2-1.5.6c-.5.4-.8.9-.9,1.6h-4.2c.1-1.9.8-3.4,1.9-4.6.6-.6,1.2-1,2-1.3.8-.3,1.7-.5,2.6-.5s1.7.1,2.5.4,1.5.7,2.1,1.3c.6.6,1,1.3,1.3,2.1.3.8.5,1.8.5,2.9v14.8h-4.3,0ZM289.2,96.2c-.5,0-.9-.1-1.2-.1-.9,0-1.7.2-2.4.7-.7.4-1,1.2-1,2.4s.2,1.5.6,2c.4.5.9.8,1.6.8s1.3-.2,1.7-.7c.4-.5.6-1.2.6-2v-2.9h0Z"/>
    <path class="cls-3" d="M304.6,105.4v-29.9h4.3v25.6h8.5v4.3h-12.8Z"/>
    <path class="cls-3" d="M328,105.4v-2.2h0c-.6.8-1.1,1.4-1.7,1.8s-1.4.6-2.4.6-1,0-1.5-.2c-.5-.2-1-.4-1.5-.9-.5-.4-.9-1-1.2-1.7-.3-.7-.4-1.7-.4-2.9s.1-2.3.3-3.2c.2-.9.6-1.7,1.1-2.3.5-.6,1.2-1,2.1-1.3s2-.4,3.3-.4h.5c.2,0,.3,0,.5,0,.1,0,.3,0,.5,0s.4,0,.6,0v-2.2c0-.7-.1-1.3-.5-1.8-.3-.5-.9-.7-1.7-.7s-1.1.2-1.5.6c-.5.4-.8.9-.9,1.6h-4.2c.1-1.9.8-3.4,1.9-4.6.6-.6,1.2-1,2-1.3.8-.3,1.7-.5,2.6-.5s1.7.1,2.5.4,1.5.7,2.1,1.3c.6.6,1,1.3,1.3,2.1.3.8.5,1.8.5,2.9v14.8h-4.3,0ZM328,96.2c-.5,0-.9-.1-1.2-.1-.9,0-1.7.2-2.4.7-.7.4-1,1.2-1,2.4s.2,1.5.6,2c.4.5.9.8,1.6.8s1.3-.2,1.7-.7c.4-.5.6-1.2.6-2v-2.9h0Z"/>
    <path class="cls-3" d="M335.3,105.4v-29.9h4.3v10.5h0c.5-.7,1-1.2,1.7-1.6.7-.4,1.4-.6,2.2-.6s1.8.2,2.4.6c.6.4,1,.8,1.4,1.4.3.4.5,1,.5,1.8,0,.7.1,1.9.1,3.4v8.1c0,1.2,0,2.1-.2,2.8-.1.7-.3,1.3-.5,1.8-.7,1.3-2,2-3.7,2s-1.9-.2-2.4-.6-1.1-.9-1.6-1.6v1.9h-4.3ZM343.9,90.6c0-.7-.1-1.3-.4-1.8s-.9-.8-1.7-.8-1.1.2-1.5.7c-.4.4-.6,1-.6,1.7v8.3c0,.8.2,1.4.6,1.9.4.5.9.7,1.5.7s1.3-.3,1.6-.8c.3-.5.5-1.2.5-2.1v-7.8h0Z"/>
  </g>
  <g>
    <path class="cls-3" d="M230.3,13.7c9.2,0,12.9,4.3,12.9,12.4v4.4c0,8.1-3.7,12.4-12.9,12.4h-24.8v11.5c0,.9-.4,1.3-1.3,1.3h-6.5c-.9,0-1.4-.4-1.4-1.3V15.5c0-1.2.6-1.8,1.8-1.8,0,0,32.2,0,32.2,0ZM205.4,34.9h23c4.1,0,5.6-1.7,5.6-5.3v-2.3c0-3.6-1.5-5.3-5.6-5.3h-22.2c-.5,0-.8.2-.8.7v12.2Z"/>
    <path class="cls-3" d="M257,13.7c.9,0,1.3.4,1.3,1.3v16h8.5c3.8,0,4.9-.4,6.7-2.7l10.3-13.8c.4-.5.7-.8,1.7-.8h7.4c1,0,1.2.9.8,1.4l-11.6,15.1c-1.4,1.8-2.5,3.1-3.6,4,1.6,1,3.1,2.4,4.6,4.3l12.3,15.6c.3.4.4,1.6-.8,1.6h-7.7c-1,0-1.3-.2-1.7-.8l-11-14.3c-1.6-2.1-3-2.7-6.7-2.7h-9.1v16.4c0,.9-.4,1.3-1.3,1.3h-6.5c-.9,0-1.4-.4-1.4-1.3V15c0-.9.5-1.3,1.4-1.3h6.5Z"/>
    <path class="cls-3" d="M308.1,13.7c.9,0,1.3.4,1.3,1.3v23.9c0,6.4,1.8,8.2,8,8.2h16.6c6.2,0,7.9-1.9,7.9-8.2V15c0-.9.4-1.3,1.3-1.3h6.5c.9,0,1.3.4,1.3,1.3v24.8c0,11.5-4.6,15.8-16.8,15.8h-17.3c-12.1,0-16.8-4.3-16.8-15.8V15c0-.9.5-1.3,1.4-1.3h6.5Z"/>
  </g>
  <g>
    <path class="cls-2" d="M154.1,8.3h-34.8c5.1,2.2,9.7,5.1,13.9,8.6h20.5c8.2,0,14.9,6.5,14.9,14.4v57.8c0,8-6.6,14.4-14.9,14.4h-20.4c-3.5,3-7.4,5.5-11.7,7.6h32.4c14.5,0,23.4-7.6,23.4-21.7V31.1c0-14.2-8.9-22.8-23.3-22.8Z"/>
    <path class="cls-2" d="M24.3,34.5h13.9c2.5,0,5.2-1,7.3-2.8,1.5-1.3,2.8-2.6,4.1-4.2,1.4-1.5,2.8-3.2,3.8-4.4,2.2-2.6,6-5.4,6-7.9,0-3.8-2.8-6.9-6.9-6.9s0,0,0,0h-13.7c-14.4,0-23.2,8.6-23.2,23.3v57.8c0,14.1,8.8,21.7,23.4,21.7h11c4.8,0,8-3,8-6.8s-2.6-4.7-4.4-6.9h0c-.2-.2-.3-.4-.5-.6-1.6-2-3.9-5.2-4.7-6.3-1.7-2.6-3.2-5.4-4.4-8.3h-9.9c2.8,7.9,7.1,15.1,12.5,21.3h-7.4c-8.2,0-14.9-6.5-14.9-14.4v-28.7c.4,0,.9,0,1.4,0,4.9,3.4,9,9.3,9.1,13,0,2.5,2,4.6,4.5,4.6s4.5-2,4.5-4.6c0-4.7-3.5-12.6-10-15,0,0,0,0,0,0,0,0,0,0,0,0,6.6-2.4,10-10.3,10-15,0-2.5-2-4.5-4.5-4.5s-4.5,2-4.5,4.5c0,3.7-4.1,9.6-9,13-.5,0-1,0-1.4,0v-22.1h0ZM39.2,16.9h7.7c-.7,1-1.4,2-2.3,3.1-2,2.4-4.3,4.6-8.1,5.5-2.8.7-7.1.4-10.9.2,2.3-5.2,7.5-8.8,13.7-8.8Z"/>
    <circle class="cls-3" cx="149.8" cy="34.5" r="6"/>
    <path class="cls-2" d="M149.8,49.3c-2.5,0-4.6,2-4.6,4.5v32.5c0,2.5,2,4.6,4.6,4.6s4.6-2,4.6-4.6v-32.5c0-2.5-2-4.5-4.6-4.5Z"/>
  </g>
  <g>
    <path class="cls-4" d="M97,40.6c2.8,0,5.4.7,7.8,1.8l-8.1-30.1h-.4c-11.4,0-21.8,4-30,10.6l30.7,17.7h0Z"/>
    <path class="cls-4" d="M83.3,45.8c2-1.8,4.3-3.2,6.9-4.1l-27.2-15.7c-7.7,7.6-12.9,17.7-14.1,29.1l34.4-9.2h0Z"/>
    <path class="cls-4" d="M96.6,79.9h0c-3.1,0-6-.7-8.6-2l8,29.9c.1,0,.3,0,.4,0,11.4,0,21.9-4,30.1-10.7l-29.8-17.2h0Z"/>
    <path class="cls-4" d="M82.3,73.7c-1.9-2.1-3.4-4.5-4.4-7.2l-15.6,27c7.6,7.7,17.7,12.8,29,14l-9-33.7Z"/>
    <path class="cls-4" d="M76.9,59.5c0-2.9.8-5.7,2.1-8.1l-30.4,8.1c0,.2,0,.3,0,.5,0,11.4,4,21.9,10.7,30.1l17.7-30.6h0Z"/>
    <path class="cls-4" d="M128.7,25c-7.4-6.8-16.9-11.4-27.5-12.5l8.8,32.8,18.7-20.3Z"/>
  </g>
  <path class="cls-1" d="M96.6,43.8c-9.1,0-16.4,7.4-16.4,16.5s7.4,16.5,16.4,16.5,16.4-7.4,16.4-16.5-7.4-16.5-16.4-16.5ZM96.3,51.4c-3.3,0-6.4,1.8-8,4.8-.2.3-.5.5-.9.5s-.3,0-.5-.1c-.5-.3-.7-.9-.4-1.3,1.9-3.6,5.7-5.9,9.7-5.9s1,.5,1,1-.4,1-1,1Z"/>
</svg>